<svg xmlns="http://www.w3.org/2000/svg" viewBox="0 0 64 64" width="64" height="64">
  <defs>
    <linearGradient id="limpy-bg" x1="0" y1="0" x2="1" y2="1">
      <stop offset="0" stop-color="#2e1065" />
      <stop offset="1" stop-color="#581c87" />
    </linearGradient>
    <linearGradient id="limpy-handle" x1="0" y1="0" x2="1" y2="0">
      <stop offset="0" stop-color="#ede9fe" />
      <stop offset="0.5" stop-color="#c4b5fd" />
      <stop offset="1" stop-color="#7c3aed" />
    </linearGradient>
    <linearGradient id="limpy-bristles" x1="0.5" y1="0" x2="0.5" y2="1">
      <stop offset="0" stop-color="#c084fc" />
      <stop offset="1" stop-color="#581c87" />
    </linearGradient>
  </defs>

  <rect width="64" height="64" rx="14" fill="url(#limpy-bg)" />

  <g transform="rotate(35 32 32)">
    <path d="M24.5 41.5 L18.5 58.5 Q18 60.5 20.2 60.5 L43.8 60.5 Q46 60.5 45.5 58.5 L39.5 41.5 Z"
          fill="url(#limpy-bristles)" stroke="#3b0764" stroke-width="0.9" stroke-linejoin="round" />
    <g stroke="#3b0764" stroke-width="0.7" stroke-linecap="round" opacity="0.85">
      <line x1="25" y1="43" x2="21.5" y2="58.5" />
      <line x1="28" y1="43" x2="26.5" y2="58.5" />
      <line x1="31" y1="43" x2="31" y2="58.5" />
      <line x1="34" y1="43" x2="35.5" y2="58.5" />
      <line x1="37" y1="43" x2="40.5" y2="58.5" />
      <line x1="32" y1="43" x2="32" y2="58.5" />
    </g>

    <rect x="22.5" y="37.5" width="19" height="5" rx="1.8"
          fill="#1e1b4b" stroke="#c4b5fd" stroke-width="0.7" />
    <line x1="24" y1="40" x2="40" y2="40" stroke="#4c1d95" stroke-width="0.5" opacity="0.7" />

    <rect x="29.8" y="7.5" width="4.4" height="30.5" rx="2.2"
          fill="url(#limpy-handle)" stroke="#3b0764" stroke-width="0.5" />
    <circle cx="32" cy="8.8" r="2.7" fill="#a855f7" stroke="#3b0764" stroke-width="0.5" />
    <circle cx="31.2" cy="8" r="0.9" fill="#ede9fe" opacity="0.85" />
  </g>

  <g opacity="0.85">
    <circle cx="12" cy="14" r="1" fill="#ede9fe" />
    <circle cx="50" cy="18" r="0.8" fill="#ede9fe" />
    <circle cx="15" cy="50" r="0.9" fill="#ede9fe" />
  </g>
</svg>
